<?xml version="1.0" standalone="no"?>
<!DOCTYPE svg PUBLIC "-//W3C//DTD SVG 20010904//EN"
 "http://www.w3.org/TR/2001/REC-SVG-20010904/DTD/svg10.dtd">
<svg version="1.0" xmlns="http://www.w3.org/2000/svg"
 width="591.000000pt" height="591.000000pt" viewBox="0 0 591.000000 591.000000"
 preserveAspectRatio="xMidYMid meet">
<metadata>
Created by potrace 1.14, written by Peter Selinger 2001-2017
</metadata>
<g transform="translate(0.000000,591.000000) scale(0.100000,-0.100000)"
fill="#000000" stroke="none">
<path d="M3869 5325 c-60 -26 -175 -95 -282 -170 -74 -51 -64 -50 -197 -21
-41 9 -133 23 -205 31 -329 37 -634 0 -975 -119 -91 -32 -301 -135 -392 -193
-257 -163 -506 -400 -661 -630 -142 -210 -246 -430 -312 -658 -10 -33 -24 -80
-31 -105 -58 -194 -83 -620 -50 -857 78 -558 321 -1037 709 -1397 172 -160
319 -262 517 -362 267 -133 507 -199 829 -225 152 -13 316 -4 501 27 495 82
988 370 1311 764 234 286 421 678 484 1015 9 50 22 117 28 150 17 86 16 548
-1 645 -57 313 -113 494 -227 730 -33 67 -157 270 -199 325 -147 193 -288 335
-466 469 -93 70 -95 72 -97 116 -5 86 -24 235 -39 309 -18 86 -44 143 -76 165
-32 23 -104 19 -169 -9z m109 -77 c18 -18 15 -27 -7 -21 -25 6 -81 -26 -81
-47 0 -8 -19 -25 -43 -38 -36 -20 -39 -21 -17 -3 36 29 12 26 -33 -5 -21 -14
-35 -30 -31 -36 4 -7 3 -8 -4 -4 -7 4 -20 2 -29 -3 -10 -6 -12 -11 -5 -11 17
0 15 -40 -2 -40 -8 0 -18 -9 -21 -20 -3 -11 -14 -20 -23 -20 -14 0 -14 -2 -3
-9 21 -13 2 -33 -25 -27 -21 6 -24 3 -24 -19 0 -25 -14 -33 -25 -15 -8 12 -73
-38 -81 -62 -3 -9 -11 -15 -18 -12 -8 3 -19 -7 -27 -25 -7 -16 -17 -27 -22
-24 -5 3 -20 0 -33 -7 -18 -10 -30 -11 -49 -2 -14 7 -39 12 -55 12 -19 0 -30
5 -30 14 0 18 165 143 386 290 196 131 271 165 302 134z m-178 -179 c0 -6 -12
-26 -26 -45 -19 -25 -30 -31 -39 -24 -6 5 -15 7 -18 3 -4 -3 -7 -1 -7 5 0 7 5
12 11 12 13 0 49 38 49 52 0 4 7 8 15 8 8 0 15 -5 15 -11z m101 -32 c-10 -9
-11 -8 -5 6 3 10 9 15 12 12 3 -3 0 -11 -7 -18z m-11 -47 c0 -11 -2 -20 -4
-20 -2 0 -6 9 -9 20 -3 11 -1 20 4 20 5 0 9 -9 9 -20z m-689 -1 c110 -14 115
-15 99 -34 -7 -8 -23 -21 -36 -28 -90 -48 -417 -321 -589 -491 -299 -296 -378
-413 -495 -731 -100 -270 -111 -300 -131 -360 -34 -98 -91 -249 -99 -260 -4
-5 -11 -26 -15 -45 -4 -19 -11 -39 -15 -45 -4 -5 -11 -24 -14 -42 -9 -38 -27
-56 -50 -47 -24 9 -20 24 16 61 34 35 43 87 17 104 -8 5 -9 9 -4 9 6 0 16 -5
22 -11 7 -7 17 3 32 36 12 25 19 50 17 54 -8 12 -47 6 -56 -8 -4 -8 -16 -11
-28 -7 -22 7 -72 -2 -70 -13 4 -19 -24 -61 -41 -61 -13 0 -20 -9 -25 -30 -11
-59 -76 -22 -76 43 0 20 -6 30 -20 34 -16 4 -18 9 -9 24 7 14 22 19 52 20 23
1 34 3 25 6 -10 2 -18 9 -18 14 0 5 8 9 18 9 14 0 12 4 -8 19 -13 11 -28 17
-32 15 -4 -3 -8 0 -8 5 0 6 -9 11 -20 11 -11 0 -20 4 -20 9 0 5 -15 16 -34 25
-18 9 -41 28 -51 42 -13 20 -23 25 -46 22 -16 -3 -29 -1 -29 4 0 5 -4 7 -9 4
-5 -3 -8 2 -7 12 1 12 -8 18 -31 20 -18 2 -33 7 -33 13 0 5 -12 9 -28 9 -20 0
-44 17 -94 66 -38 36 -71 71 -75 78 -13 21 -60 28 -67 11 -3 -8 -10 -15 -17
-15 -10 0 -6 69 7 113 6 20 -9 23 -24 5 -18 -22 -54 -130 -67 -203 -16 -81
-24 -105 -36 -105 -10 0 -2 43 13 73 5 10 14 45 19 78 5 33 13 68 18 77 4 9
18 49 31 87 13 39 34 88 46 111 13 22 24 50 24 62 0 12 4 22 10 22 5 0 32 44
60 98 52 101 132 221 204 306 147 175 373 369 536 461 36 20 79 44 95 54 17 9
48 25 70 34 22 8 78 32 124 51 140 59 338 111 476 126 110 11 404 11 496 -1z
m612 -14 c-3 -9 -8 -14 -10 -11 -3 3 -2 9 2 15 9 16 15 13 8 -4z m-108 -43
c-15 -16 -16 -15 -4 12 7 15 15 23 17 16 3 -7 -3 -19 -13 -28z m347 -177 c3
-71 2 -112 -2 -90 -11 60 -21 297 -11 255 5 -19 11 -93 13 -165z m-222 74 c-7
-16 -16 -29 -20 -29 -5 0 -1 18 8 40 9 21 19 35 21 29 1 -5 -2 -23 -9 -40z
m-243 -45 c-3 -3 -12 -4 -19 -1 -8 3 -5 6 6 6 11 1 17 -2 13 -5z m-331 -19
c10 -8 32 -15 47 -15 15 0 44 -7 64 -15 19 -8 45 -15 58 -15 32 0 86 -20 80
-30 -3 -5 -19 -4 -36 2 -16 6 -33 7 -37 4 -3 -4 3 -9 14 -12 12 -3 38 -26 59
-51 l38 -45 -7 -113 c-8 -117 -1 -140 30 -114 9 7 25 32 36 56 11 24 26 43 32
43 7 0 18 11 24 25 9 19 19 25 42 25 30 0 30 -1 30 -52 0 -79 -58 -333 -109
-481 -11 -32 -20 -62 -19 -65 1 -4 -5 -29 -13 -55 -17 -62 -42 -77 -75 -46
-13 12 -21 26 -18 31 3 4 -3 11 -12 15 -10 4 -26 13 -36 22 -22 18 -17 60 24
225 22 89 27 121 18 130 -15 14 -56 -35 -69 -81 -11 -40 -62 -93 -89 -93 -11
0 -36 7 -56 15 -29 12 -36 21 -36 43 0 15 7 38 15 52 39 68 44 107 6 48 -11
-18 -33 -52 -49 -75 -42 -65 -136 -118 -288 -166 -89 -28 -188 -91 -247 -157
-44 -48 -104 -164 -123 -237 -31 -119 -12 -298 42 -404 30 -61 30 -69 -1 -69
-24 0 -25 -2 -13 -22 7 -13 18 -38 24 -56 11 -29 10 -34 -7 -45 -10 -6 -19
-20 -19 -30 0 -10 -4 -16 -9 -13 -5 3 -14 -6 -19 -22 -5 -15 -13 -34 -17 -43
-4 -12 1 -19 17 -24 35 -11 68 -12 68 -1 0 5 3 6 6 3 4 -4 1 -13 -6 -22 -16
-19 -14 -21 29 -30 26 -5 32 -4 26 5 -5 9 -4 11 3 6 6 -4 21 -2 33 4 15 9 24
9 32 1 8 -8 4 -11 -13 -11 -14 0 -31 -4 -39 -9 -15 -10 6 -27 62 -52 15 -7 27
-16 27 -21 0 -11 -26 -10 -48 2 -37 21 -201 83 -267 102 -68 20 -127 30 -285
49 -72 9 -89 9 -155 6 -26 -2 -30 1 -29 23 1 14 20 77 43 140 24 63 49 133 56
155 7 22 43 121 80 220 37 99 78 214 92 255 14 41 29 79 34 85 5 5 9 16 9 24
0 32 93 200 157 286 78 103 139 172 238 268 153 149 181 175 299 272 27 22 54
45 60 50 30 26 133 103 146 108 23 8 25 8 46 -8z m508 -63 c16 -12 26 -22 22
-22 -14 0 -146 73 -146 81 0 11 89 -31 124 -59z m186 3 c0 -19 -4 -35 -10 -35
-11 0 -14 53 -3 63 11 12 13 8 13 -28z m-396 -24 c3 -5 0 -11 -8 -14 -15 -6
-26 1 -26 15 0 11 27 10 34 -1z m296 -21 c13 -8 13 -10 -2 -10 -9 0 -20 5 -23
10 -8 13 5 13 25 0z m87 -73 c-7 -19 -25 35 -19 58 5 16 7 14 14 -13 5 -19 7
-39 5 -45z m-307 47 c0 -8 -4 -12 -10 -9 -5 3 -10 10 -10 16 0 5 5 9 10 9 6 0
10 -7 10 -16z m256 -9 c9 -8 11 -15 6 -15 -5 0 -15 7 -22 15 -7 8 -9 15 -6 15
4 0 14 -7 22 -15z m-221 -15 c3 -5 2 -10 -4 -10 -5 0 -13 5 -16 10 -3 6 -2 10
4 10 5 0 13 -4 16 -10z m392 -37 c-3 -10 -5 -2 -5 17 0 19 2 27 5 18 2 -10 2
-26 0 -35z m-343 2 c11 -8 17 -18 13 -21 -3 -3 -16 3 -28 15 -26 24 -14 28 15
6z m536 -48 c25 -24 72 -67 105 -97 33 -30 78 -76 100 -104 88 -109 165 -211
165 -219 0 -4 18 -32 40 -61 103 -136 233 -454 284 -694 40 -193 49 -289 43
-507 -6 -225 -20 -338 -58 -461 -5 -17 -9 -42 -9 -57 0 -14 -4 -28 -9 -31 -5
-3 -12 -23 -16 -43 -11 -59 -89 -233 -173 -387 -62 -112 -172 -279 -180 -271
-10 9 -8 85 2 85 15 0 -5 52 -27 71 l-22 18 35 1 c20 0 41 -5 48 -12 9 -9 12
-9 12 0 0 6 -9 16 -20 22 -11 6 -20 15 -20 19 0 5 9 7 20 4 11 -3 20 -1 20 5
0 6 10 8 23 5 22 -5 22 -5 2 10 -11 9 -26 17 -33 17 -7 0 -30 11 -52 25 -22
14 -46 25 -55 25 -8 0 -15 4 -15 9 0 10 -129 33 -142 25 -5 -3 -8 -2 -7 3 4
22 -4 32 -36 47 -19 9 -35 21 -35 25 0 5 -16 11 -35 13 -28 3 -34 1 -30 -12
10 -32 -10 -43 -66 -37 -52 6 -53 6 -25 -8 15 -8 42 -15 58 -15 17 0 27 -4 23
-10 -11 -17 -71 -11 -98 11 -31 24 -87 79 -87 85 0 12 42 1 47 -13 5 -14 8
-13 15 6 5 16 13 21 24 17 12 -5 15 -2 11 13 -4 17 -2 17 21 5 14 -7 28 -11
31 -9 8 9 -47 55 -85 71 -21 9 -51 25 -66 35 -15 11 -43 19 -66 19 -24 0 -56
10 -83 25 -71 41 -73 42 -101 54 -22 8 -28 17 -28 41 0 16 -5 30 -10 30 -14 0
-66 -53 -81 -82 -7 -13 -14 -18 -16 -11 -4 12 38 95 82 159 13 19 27 45 31 57
4 12 10 24 14 27 4 3 32 53 63 112 30 58 74 136 96 173 23 37 41 69 41 72 0 3
8 17 19 31 31 45 119 217 136 268 47 140 75 290 104 569 15 148 18 499 5 753
-7 142 -4 146 66 79z m-495 3 c3 -5 1 -10 -4 -10 -6 0 -11 5 -11 10 0 6 2 10
4 10 3 0 8 -4 11 -10z m312 -57 c-3 -10 -5 -4 -5 12 0 17 2 24 5 18 2 -7 2
-21 0 -30z m-225 -115 c-9 -32 -10 -31 -10 22 -1 46 1 52 10 33 8 -16 8 -32 0
-55z m242 -205 c5 -417 -41 -815 -115 -998 -25 -61 -96 -201 -119 -235 -10
-14 -33 -54 -52 -90 -18 -36 -51 -92 -73 -125 -21 -33 -45 -76 -54 -95 -15
-31 -65 -118 -128 -219 -12 -20 -42 -71 -66 -113 l-43 -78 -28 29 c-30 31 -29
36 14 101 70 105 112 174 141 225 18 33 51 89 74 125 45 69 53 84 156 267 109
195 123 235 189 533 41 189 80 552 80 749 0 77 3 102 11 94 7 -7 12 -69 13
-170z m-616 15 c-2 -6 -10 -14 -16 -16 -7 -2 -10 2 -6 12 7 18 28 22 22 4z
m323 -72 c-5 -19 -6 -19 -9 4 -2 14 -8 29 -13 35 -5 5 -9 13 -9 18 0 5 8 -1
19 -14 11 -14 16 -31 12 -43z m-30 -9 c-10 -9 -11 -8 -5 6 3 10 9 15 12 12 3
-3 0 -11 -7 -18z m-24 -81 c-1 -28 -3 -31 -14 -20 -16 16 -16 27 -1 42 16 16
16 16 15 -22z m-367 -30 c0 -13 6 -27 13 -29 8 -4 7 -6 -4 -6 -8 -1 -24 5 -34
13 -16 12 -17 16 -6 30 19 23 31 20 31 -8z m-158 -9 c21 -7 41 -16 44 -20 4
-4 15 -7 24 -7 39 0 174 -106 228 -179 22 -30 73 -189 76 -241 1 -14 6 -33 10
-42 4 -10 6 -35 2 -55 -3 -21 -8 -56 -11 -78 -6 -39 -11 -55 -34 -105 -11 -24
-11 -24 -5 5 8 39 15 136 7 110 -3 -11 -9 -24 -14 -30 -5 -5 -9 -20 -9 -34 0
-18 -3 -22 -11 -14 -8 8 -7 17 2 34 15 27 15 151 1 215 -7 30 -6 50 4 73 14
34 12 36 -17 21 -16 -9 -19 -7 -19 8 0 11 -33 52 -73 93 -78 79 -177 139 -230
139 -28 0 -29 -1 -15 -17 20 -23 38 -78 38 -116 0 -126 -121 -234 -237 -212
-87 16 -159 95 -170 186 l-6 51 -34 -37 c-18 -20 -48 -65 -65 -98 -30 -59 -32
-68 -32 -177 0 -113 0 -117 37 -193 54 -110 123 -177 243 -233 93 -43 95 -43
196 -42 57 0 95 3 86 5 -10 3 -18 9 -18 14 0 10 48 24 57 15 3 -3 23 8 44 25
28 22 45 29 60 24 14 -5 19 -3 15 3 -13 21 5 42 31 36 16 -4 28 -2 34 7 12 19
11 39 -1 39 -5 0 -10 -9 -10 -20 0 -11 -4 -20 -10 -20 -10 0 -3 27 12 46 5 7
18 10 29 7 15 -4 22 0 26 16 6 23 23 29 23 9 -1 -37 -87 -138 -117 -138 -13 0
-23 -6 -23 -13 0 -45 -211 -129 -271 -108 -19 6 -39 7 -54 1 -35 -13 -127 5
-202 39 -79 37 -181 132 -224 210 -40 71 -69 184 -69 271 0 79 31 210 60 250
11 15 20 33 20 38 0 5 14 24 30 42 17 18 30 36 30 40 0 4 21 24 48 43 26 20
52 41 59 47 11 9 64 34 108 50 11 4 31 12 45 18 36 15 208 14 252 -1z m538
-62 c0 -8 -4 -15 -10 -15 -5 0 -7 7 -4 15 4 8 8 15 10 15 2 0 4 -7 4 -15z
m-43 -27 c-3 -8 -6 -5 -6 6 -1 11 2 17 5 13 3 -3 4 -12 1 -19z m60 -97 c-3
-27 -10 -58 -16 -68 -5 -10 -12 -26 -15 -35 -7 -22 -61 -25 -69 -4 -4 11 1 12
21 7 23 -6 28 -3 45 28 12 24 17 49 14 73 -5 37 -1 48 16 48 6 0 7 -20 4 -49z
m-201 -28 c-7 -7 -26 7 -26 19 0 6 6 6 15 -2 9 -7 13 -15 11 -17z m58 -109
c13 -33 6 -49 -9 -20 -18 33 -18 36 -6 36 5 0 12 -7 15 -16z m-2457 -146 c-3
-7 -5 -2 -5 12 0 14 2 19 5 13 2 -7 2 -19 0 -25z m2491 -90 c-2 -51 -10 -102
-16 -113 -11 -17 -12 -13 -5 25 4 25 7 81 6 124 -1 56 1 76 9 68 6 -6 9 -45 6
-104z m-2447 45 c13 -16 12 -17 -3 -4 -10 7 -18 15 -18 17 0 8 8 3 21 -13z
m2213 -164 c-29 -89 -43 -106 -135 -168 -61 -41 -185 -79 -216 -66 -17 7 -16
8 2 15 11 5 32 9 46 9 31 1 112 35 133 57 14 14 14 18 1 44 -19 37 -19 61 1
108 18 44 71 102 93 102 9 0 29 -7 45 -15 16 -9 31 -13 34 -11 2 3 7 27 11 53
l6 48 3 -46 c2 -31 -6 -76 -24 -130z m-2159 111 c10 -11 16 -20 13 -20 -3 0
-13 9 -23 20 -10 11 -16 20 -13 20 3 0 13 -9 23 -20z m106 -44 c-9 -11 -9 -15
1 -20 10 -5 10 -7 1 -12 -9 -4 -10 -11 -3 -25 9 -16 7 -19 -8 -19 -11 0 -31 9
-45 20 -14 11 -31 20 -39 20 -7 0 -20 5 -28 11 -12 8 -8 9 15 8 47 -3 67 0 61
10 -4 5 2 7 13 4 10 -3 22 0 25 6 4 6 10 11 13 11 3 0 0 -6 -6 -14z m129 -41
c0 -8 -2 -15 -4 -15 -2 0 -6 7 -10 15 -3 8 -1 15 4 15 6 0 10 -7 10 -15z
m-535 -101 c-4 -41 -10 -72 -14 -70 -4 3 -4 35 0 73 5 37 9 75 9 83 1 11 3 12
7 2 3 -8 2 -47 -2 -88z m595 41 c7 -8 20 -15 29 -16 10 0 11 -2 4 -6 -7 -2
-25 5 -39 16 -15 12 -22 21 -17 21 6 0 16 -7 23 -15z m2055 -42 c-4 -21 -17
-51 -29 -68 -13 -16 -26 -40 -30 -52 -7 -23 -140 -153 -156 -153 -21 0 -9 18
28 44 69 47 148 159 176 249 10 32 18 17 11 -20z m-113 2 c-4 -13 -10 -25 -14
-25 -9 0 -9 -2 -2 28 4 12 10 22 14 22 5 0 5 -11 2 -25z m-842 -156 c0 -5 -4
-9 -10 -9 -5 0 -10 7 -10 16 0 8 5 12 10 9 6 -3 10 -10 10 -16z m350 11 c0 -5
-4 -10 -9 -10 -6 0 -13 5 -16 10 -3 6 1 10 9 10 9 0 16 -4 16 -10z m-1196 -73
c-21 -12 -30 -1 -14 18 10 13 15 13 21 3 5 -8 2 -16 -7 -21z m937 -26 c13 -11
20 -23 16 -27 -4 -4 -20 4 -35 19 -30 31 -16 37 19 8z m-1824 -13 c-3 -8 -6
-5 -6 6 -1 11 2 17 5 13 3 -3 4 -12 1 -19z m1718 -10 c-3 -13 -7 -34 -9 -48
-1 -14 -7 -23 -12 -20 -11 6 -7 46 7 72 13 25 20 23 14 -4z m-1695 -18 c0 -5
-7 -10 -15 -10 -8 0 -15 5 -15 10 0 6 7 10 15 10 8 0 15 -4 15 -10z m2420 -12
c0 -7 -11 -14 -25 -14 -26 -2 -34 11 -12 19 22 10 37 7 37 -5z m-1674 -25 c19
-62 23 -65 46 -49 33 23 77 20 98 -6 19 -24 17 -45 -3 -31 -13 9 -214 0 -262
-12 -21 -5 -27 -4 -20 3 6 6 33 15 60 19 l50 8 3 43 c3 43 18 56 28 25z m1604
-11 c0 -23 -49 -72 -51 -51 -1 8 -1 20 0 27 1 6 -4 12 -11 12 -16 1 32 29 50
30 6 0 12 -8 12 -18z m-2265 -20 c-3 -3 -11 0 -18 7 -9 10 -8 11 6 5 10 -3 15
-9 12 -12z m1908 11 c-7 -2 -19 -2 -25 0 -7 3 -2 5 12 5 14 0 19 -2 13 -5z
m257 -14 c0 -6 -9 -13 -20 -16 -11 -3 -20 -10 -20 -16 0 -6 -25 -62 -55 -123
-30 -62 -55 -117 -55 -123 0 -19 -27 -12 -89 25 -36 21 -61 43 -61 53 0 9 17
50 38 91 21 41 41 85 44 98 6 21 11 22 112 22 70 0 106 -4 106 -11z m119 -69
c-16 -21 -31 -30 -52 -30 -18 0 -27 4 -24 13 2 6 14 12 27 12 18 0 29 10 44
43 19 39 21 40 24 18 2 -14 -6 -38 -19 -56z m-1099 36 c30 -9 76 -23 101 -31
26 -8 56 -15 68 -15 12 0 19 -4 16 -10 -6 -10 39 -25 52 -17 5 3 15 1 23 -5
12 -8 12 -9 -2 -5 -13 5 -17 0 -16 -21 0 -27 -21 -87 -68 -191 -38 -83 -41
-90 -65 -161 -13 -36 -26 -67 -29 -70 -3 -3 -12 -25 -20 -50 -7 -25 -21 -61
-31 -80 -10 -19 -29 -61 -43 -92 l-25 -58 22 0 c12 0 29 -5 37 -11 20 -14 -60
-4 -160 21 -124 30 -235 43 -304 35 -36 -3 -70 -4 -75 -1 -6 4 -2 29 10 64 12
31 38 107 59 167 21 61 57 162 80 225 23 63 54 151 69 195 16 44 34 93 40 108
l11 29 98 -5 c53 -2 122 -12 152 -21z m-1194 -53 c47 -43 80 -93 98 -150 18
-59 21 -161 5 -196 -12 -26 -54 -51 -70 -42 -5 4 -9 40 -9 81 0 112 -18 213
-46 253 -24 36 -30 62 -17 74 8 9 5 11 39 -20z m2187 -9 c-3 -15 -35 -17 -43
-3 -5 7 -6 18 -3 26 5 12 9 12 27 0 11 -8 20 -18 19 -23z m-300 -14 c-3 -11
-7 -20 -9 -20 -2 0 -4 9 -4 20 0 11 4 20 9 20 5 0 7 -9 4 -20z m-343 -30 c8
-5 11 -10 5 -10 -5 0 -17 5 -25 10 -8 5 -10 10 -5 10 6 0 17 -5 25 -10z m-729
-21 c10 -17 -16 -66 -38 -73 -10 -2 -54 -10 -98 -16 -53 -8 -96 -22 -130 -41
-27 -16 -45 -29 -40 -29 6 0 11 -12 12 -27 l1 -27 -16 27 c-18 29 -38 37 -28
12 3 -9 0 -15 -9 -15 -21 0 -86 -60 -78 -73 4 -6 0 -8 -10 -4 -17 6 -21 -2
-18 -35 1 -10 -3 -18 -8 -18 -6 0 -11 5 -11 12 0 7 -8 2 -17 -11 -10 -12 -29
-36 -42 -52 -13 -16 -20 -36 -17 -45 4 -10 2 -13 -6 -8 -8 5 -9 2 -5 -10 4
-10 3 -15 -3 -11 -6 3 -10 -3 -10 -15 0 -12 -4 -18 -10 -15 -15 9 -12 -16 5
-49 8 -16 14 -46 13 -66 -3 -33 -5 -37 -20 -29 -10 5 -17 13 -17 17 1 4 -2 22
-6 40 l-8 33 -29 -52 c-21 -36 -28 -59 -24 -78 4 -16 3 -21 -2 -13 -6 9 -12 6
-20 -13 -7 -14 -12 -32 -12 -40 0 -8 -2 -15 -4 -15 -20 0 -39 19 -55 56 -19
43 -19 43 2 106 11 35 28 74 37 88 10 14 21 36 25 50 15 50 135 216 198 276
83 80 178 141 247 160 30 9 60 17 65 20 23 9 178 -4 186 -17z m1342 -31 c-8
-59 -13 -61 -13 -5 0 26 4 47 9 47 5 0 7 -19 4 -42z m-1993 11 c0 -5 -4 -9
-10 -9 -5 0 -10 7 -10 16 0 8 5 12 10 9 6 -3 10 -10 10 -16z m170 8 c0 -2 -14
-16 -32 -33 -30 -28 -30 -17 0 19 13 15 32 23 32 14z m1140 -33 c-18 -21 -24
-10 -9 18 8 14 14 18 17 10 2 -7 -2 -19 -8 -28z m145 -11 c19 -9 35 -24 35
-33 0 -9 -13 -44 -30 -77 -16 -33 -31 -72 -32 -86 -2 -22 -8 -28 -38 -33 -19
-3 -44 -10 -55 -15 -11 -5 -32 -13 -47 -19 -16 -5 -28 -16 -28 -25 0 -8 -4
-15 -10 -15 -21 0 -9 30 20 51 32 24 60 77 80 154 7 28 19 54 27 58 7 4 13 16
13 26 0 35 14 38 65 14z m-1430 -30 c4 -14 2 -23 -4 -23 -6 0 -11 3 -11 8 0 4
-3 18 -6 32 -8 31 11 16 21 -17z m1255 -23 c-16 -31 -23 -19 -9 16 6 16 13 24
16 17 2 -7 -1 -22 -7 -33z m-680 6 c0 -7 -7 -29 -15 -47 -13 -32 -14 -33 -15
-8 0 28 -7 28 -131 16 -23 -3 -25 -1 -16 14 7 12 33 20 86 27 42 5 79 10 84
11 4 0 7 -5 7 -13z m-557 -40 c-21 -28 -28 -26 -18 3 3 12 13 21 21 21 12 0
12 -4 -3 -24z m1666 2 c30 -19 33 -23 16 -27 -10 -2 -21 2 -23 8 -2 6 -10 11
-17 11 -7 0 -15 7 -19 15 -7 20 0 19 43 -7z m277 -51 c-15 -30 -16 -30 -11 -5
3 16 0 28 -7 30 -7 3 -9 12 -5 22 6 16 8 16 23 1 16 -15 16 -19 0 -48z m-206
13 c0 -5 -7 -10 -15 -10 -8 0 -15 5 -15 10 0 6 7 10 15 10 8 0 15 -4 15 -10z
m-560 -82 c0 -13 3 -33 6 -44 4 -16 0 -23 -16 -27 -20 -5 -22 -3 -16 25 3 17
6 39 6 49 0 11 5 19 10 19 6 0 10 -10 10 -22z m-830 -26 c0 -8 -52 -42 -64
-42 -3 0 -6 7 -6 15 0 8 7 15 15 15 8 0 15 5 15 10 0 6 9 10 20 10 11 0 20 -4
20 -8z m1288 -27 c-6 -14 -13 -23 -16 -21 -7 7 9 46 18 46 5 0 4 -11 -2 -25z
m256 10 c-4 -8 -10 -12 -15 -9 -14 8 -10 24 6 24 9 0 12 -6 9 -15z m-58 -20
c-5 -19 -2 -25 10 -25 17 0 16 -30 -1 -32 -14 -2 -29 46 -22 66 10 25 20 19
13 -9z m-1696 -5 c0 -5 -5 -10 -11 -10 -5 0 -7 5 -4 10 3 6 8 10 11 10 2 0 4
-4 4 -10z m1405 -30 c8 0 15 -7 15 -15 0 -22 -58 -20 -62 3 -5 24 14 44 25 26
4 -8 15 -14 22 -14z m-345 -23 c0 -7 -5 -18 -11 -24 -13 -13 -39 -6 -39 9 0 5
5 6 10 3 6 -3 13 1 16 9 7 19 24 21 24 3z m185 -7 c3 -6 -1 -7 -9 -4 -18 7
-21 14 -7 14 6 0 13 -4 16 -10z m-45 -10 c0 -5 -2 -10 -4 -10 -3 0 -8 5 -11
10 -3 6 -1 10 4 10 6 0 11 -4 11 -10z m482 -32 c-9 -9 -12 -7 -12 12 0 19 3
21 12 12 9 -9 9 -15 0 -24z m-28 -14 c4 -10 -3 -25 -19 -40 -18 -16 -25 -19
-25 -9 0 8 5 15 10 15 6 0 10 11 10 25 0 28 15 33 24 9z m-1634 -9 c0 -20 -22
-67 -41 -86 -15 -15 -17 -14 -28 4 -9 14 -10 26 -3 41 6 11 13 29 16 39 7 21
56 24 56 2z m911 -38 c-8 -8 -11 -3 -11 19 1 25 2 27 11 11 8 -14 8 -22 0 -30z
m89 33 c0 -5 -4 -10 -10 -10 -5 0 -10 5 -10 10 0 6 5 10 10 10 6 0 10 -4 10
-10z m-35 -79 c-17 -17 -17 -13 2 37 6 16 6 16 11 -2 2 -10 -4 -26 -13 -35z
m688 -24 c-7 -36 -55 -87 -82 -87 -12 0 -21 4 -21 9 0 5 8 7 19 4 11 -3 21 2
25 12 3 9 11 13 18 9 8 -5 9 -2 5 9 -3 9 -1 19 5 23 6 4 8 22 4 48 -7 41 -7
41 13 21 14 -14 18 -28 14 -48z m-753 37 c0 -8 -7 -22 -15 -30 -13 -14 -15
-13 -11 8 3 13 5 26 5 31 2 14 21 7 21 -9z m169 -58 c-37 -69 -49 -69 -17 0
30 64 41 80 45 68 2 -5 -11 -36 -28 -68z m911 44 l22 -30 -47 -78 c-26 -42
-55 -90 -65 -107 -9 -16 -38 -65 -64 -108 -25 -43 -46 -81 -46 -85 0 -3 -6
-13 -14 -21 -7 -9 -25 -36 -39 -61 -73 -132 -120 -211 -127 -215 -11 -7 -50
43 -50 63 0 15 13 38 80 147 20 33 99 165 175 293 76 127 141 232 146 232 4 0
17 -14 29 -30z m183 -10 c-6 -22 -23 -38 -23 -21 0 17 12 41 20 41 5 0 6 -9 3
-20z m-813 -11 c0 -5 -4 -9 -8 -9 -5 0 -9 7 -9 15 0 8 4 12 9 9 4 -3 8 -9 8
-15z m1173 14 c-7 -2 -21 -2 -30 0 -10 3 -4 5 12 5 17 0 24 -2 18 -5z m-1587
-45 c-11 -15 -16 -18 -16 -7 0 16 21 42 28 34 2 -2 -3 -14 -12 -27z m1639 22
c3 -6 -1 -7 -9 -4 -18 7 -21 14 -7 14 6 0 13 -4 16 -10z m-1059 -52 c-11 -15
-16 -18 -16 -7 0 16 21 42 28 34 2 -2 -3 -14 -12 -27z m-610 -30 c-18 -26 -22
-17 -5 14 6 11 13 17 16 15 3 -3 -2 -16 -11 -29z m1192 -23 c1 -36 -6 -43 -25
-24 -9 9 -8 18 5 35 9 13 17 24 18 24 0 0 1 -16 2 -35z m-558 10 c0 -8 -4 -15
-9 -15 -5 0 -12 -11 -15 -25 -4 -14 -13 -25 -21 -25 -8 0 -12 -6 -9 -14 3 -7
-16 -48 -42 -91 -42 -67 -50 -75 -60 -60 -20 27 14 101 101 223 18 25 55 30
55 7z m-650 -19 c0 -3 -4 -8 -10 -11 -5 -3 -10 -1 -10 4 0 6 5 11 10 11 6 0
10 -2 10 -4z m1237 -62 c-9 -9 -28 6 -21 18 4 6 10 6 17 -1 6 -6 8 -13 4 -17z
m-84 -94 c44 -48 80 -126 106 -225 15 -57 14 -210 -3 -297 -26 -132 -108 -336
-171 -423 -12 -16 -29 -44 -38 -61 -11 -22 -26 -33 -48 -38 -42 -8 -47 -1 -21
27 11 12 30 47 42 77 12 30 25 57 29 60 6 4 42 78 71 145 13 29 55 172 70 234
8 35 11 94 8 170 -6 123 -16 158 -82 291 -31 61 -36 90 -16 90 4 0 28 -23 53
-50z m-2203 -40 c0 -5 -4 -10 -10 -10 -5 0 -10 5 -10 10 0 6 5 10 10 10 6 0
10 -4 10 -10z m1067 -52 c-3 -7 -5 -2 -5 12 0 14 2 19 5 13 2 -7 2 -19 0 -25z
m-784 8 c52 -23 118 -96 153 -171 27 -58 31 -147 10 -207 -12 -34 -12 -38 3
-38 9 0 25 -7 35 -15 35 -27 54 -18 23 10 -15 14 -27 27 -27 28 1 1 7 27 14
57 9 38 10 70 3 104 -5 28 -7 64 -4 81 16 101 31 157 44 162 26 10 230 -16
270 -33 21 -10 54 -23 73 -29 48 -15 45 -40 -22 -195 -47 -109 -78 -201 -78
-231 0 -36 21 -201 26 -208 6 -6 137 77 176 111 20 18 53 65 74 103 21 39 52
97 70 130 18 33 40 75 50 93 9 17 23 32 32 32 46 0 276 -196 288 -247 4 -14 0
-32 -10 -46 -9 -12 -31 -42 -49 -67 -18 -25 -51 -54 -72 -64 -22 -11 -64 -44
-93 -74 l-52 -55 -83 6 c-45 3 -104 2 -132 -3 -38 -5 -42 -8 -18 -9 46 -2 226
-32 242 -41 10 -5 23 6 45 38 51 74 93 102 171 112 73 9 159 0 178 -19 19 -19
-10 -31 -75 -31 -98 0 -181 -60 -245 -177 -17 -32 -38 -59 -47 -61 -9 -2 -28
10 -43 26 -41 43 -64 52 -155 58 -78 5 -177 37 -178 57 0 4 -9 7 -20 7 -33 0
-260 129 -260 148 0 10 -92 103 -126 128 -16 11 -51 30 -79 43 -94 43 -140
111 -76 111 28 0 30 2 36 54 14 109 -10 188 -82 272 -29 33 -42 64 -28 64 3 0
20 -6 38 -14z m2135 -37 c7 -28 11 -67 11 -87 -1 -37 -1 -37 -9 8 -4 25 -15
64 -23 88 -11 31 -12 42 -3 42 7 0 18 -23 24 -51z m-885 25 c3 -3 1 -16 -5
-29 -9 -19 -14 -22 -28 -13 -21 14 -15 48 9 48 10 0 20 -3 24 -6z m-516 -106
c-3 -7 -5 -2 -5 12 0 14 2 19 5 13 2 -7 2 -19 0 -25z m2250 -114 c-9 -9 -28 6
-21 18 4 6 10 6 17 -1 6 -6 8 -13 4 -17z m-16 -31 c-25 -43 -51 -66 -51 -45 0
8 48 62 56 62 2 0 0 -8 -5 -17z m-91 -103 c0 -5 -9 -14 -21 -20 -19 -11 -20
-10 -9 9 11 22 30 29 30 11z m-710 -29 c0 -5 22 -11 49 -15 27 -3 54 -13 61
-21 16 -20 1 -20 -47 0 -19 8 -48 15 -64 15 -19 0 -29 5 -29 15 0 8 7 15 15
15 8 0 15 -4 15 -9z m660 -21 c0 -5 -4 -10 -10 -10 -5 0 -10 5 -10 10 0 6 5
10 10 10 6 0 10 -4 10 -10z m-51 -46 c7 -7 -44 -43 -61 -44 -25 0 -23 21 2 27
22 6 26 19 8 26 -7 2 1 2 17 -1 17 -2 32 -6 34 -8z m-527 -46 c79 -41 115 -88
67 -88 -30 0 -128 30 -134 41 -4 5 -24 9 -46 9 -37 0 -39 2 -39 30 0 16 7 33
16 38 21 12 81 -1 136 -30z m148 2 c0 -17 -15 -19 -32 -3 -26 23 -22 35 7 21
14 -6 25 -14 25 -18z m261 8 c15 -24 -9 -32 -46 -15 -22 10 -60 17 -98 17 -34
0 -69 5 -77 11 -11 8 17 9 99 5 78 -3 117 -9 122 -18z m-53 -79 c29 -11 29
-45 0 -60 -13 -7 -29 -18 -36 -25 -9 -9 -27 -12 -55 -8 -55 8 -121 -21 -176
-76 -22 -23 -41 -46 -41 -51 0 -16 -41 -10 -67 11 -18 14 -41 20 -75 20 -41 0
-49 3 -46 17 5 29 48 44 105 39 53 -5 53 -4 109 50 69 68 96 86 142 94 39 8
102 3 140 -11z"/>
<path d="M2638 4653 c6 -2 18 -2 25 0 6 3 1 5 -13 5 -14 0 -19 -2 -12 -5z"/>
<path d="M1631 3894 c0 -11 3 -14 6 -6 3 7 2 16 -1 19 -3 4 -6 -2 -5 -13z"/>
<path d="M1521 3824 c0 -11 3 -14 6 -6 3 7 2 16 -1 19 -3 4 -6 -2 -5 -13z"/>
<path d="M1635 3760 c-8 -13 15 -13 35 0 12 8 11 10 -7 10 -12 0 -25 -4 -28
-10z"/>
<path d="M1116 3737 c-5 -15 -6 -31 -2 -34 11 -11 18 5 14 34 l-4 28 -8 -28z"/>
<path d="M1722 3738 c2 -6 10 -14 16 -16 7 -2 10 2 6 12 -7 18 -28 22 -22 4z"/>
<path d="M1655 3720 c3 -5 10 -10 16 -10 5 0 9 5 9 10 0 6 -7 10 -16 10 -8 0
-12 -4 -9 -10z"/>
<path d="M1685 3670 c-11 -17 5 -32 21 -19 7 6 11 15 8 20 -7 12 -21 11 -29
-1z"/>
<path d="M1738 3183 c6 -2 18 -2 25 0 6 3 1 5 -13 5 -14 0 -19 -2 -12 -5z"/>
<path d="M1682 3100 c0 -14 2 -19 5 -12 2 6 2 18 0 25 -3 6 -5 1 -5 -13z"/>
<path d="M4408 3663 c7 -3 16 -2 19 1 4 3 -2 6 -13 5 -11 0 -14 -3 -6 -6z"/>
<path d="M4308 2863 c6 -2 18 -2 25 0 6 3 1 5 -13 5 -14 0 -19 -2 -12 -5z"/>
<path d="M4363 2773 c9 -2 23 -2 30 0 6 3 -1 5 -18 5 -16 0 -22 -2 -12 -5z"/>
<path d="M3708 2375 c-22 -29 -23 -45 -4 -45 8 0 17 14 21 31 9 39 4 43 -17
14z"/>
<path d="M4415 2230 c3 -5 8 -10 11 -10 2 0 4 5 4 10 0 6 -5 10 -11 10 -5 0
-7 -4 -4 -10z"/>
<path d="M4263 2085 c0 -33 2 -45 4 -27 2 18 2 45 0 60 -2 15 -4 0 -4 -33z"/>
<path d="M4459 2092 c-4 -24 -2 -35 8 -39 19 -7 28 4 16 19 -6 7 -13 22 -15
33 -3 14 -6 10 -9 -13z"/>
<path d="M4510 2108 c0 -7 5 -20 10 -28 8 -12 10 -11 10 7 0 12 -4 25 -10 28
-5 3 -10 0 -10 -7z"/>
<path d="M4378 2073 c6 -2 18 -2 25 0 6 3 1 5 -13 5 -14 0 -19 -2 -12 -5z"/>
<path d="M3560 3432 c0 -33 4 -51 10 -47 13 8 13 65 0 85 -7 11 -10 0 -10 -38z"/>
<path d="M3035 2950 c-3 -5 1 -10 9 -10 9 0 16 5 16 10 0 6 -4 10 -9 10 -6 0
-13 -4 -16 -10z"/>
<path d="M1313 3323 c9 -2 23 -2 30 0 6 3 -1 5 -18 5 -16 0 -22 -2 -12 -5z"/>
<path d="M1231 2194 c0 -11 3 -14 6 -6 3 7 2 16 -1 19 -3 4 -6 -2 -5 -13z"/>
<path d="M2800 1885 c-12 -15 -5 -39 9 -30 12 7 21 45 11 45 -4 0 -13 -7 -20
-15z"/>
</g>
</svg>
